<?xml version="1.0" encoding="utf-8"?>
<!-- Generator: Adobe Illustrator 28.0.0, SVG Export Plug-In . SVG Version: 6.00 Build 0)  -->
<svg version="1.1"
	 id="Layer_1" xmlns:rdf="http://www.w3.org/1999/02/22-rdf-syntax-ns#" xmlns:cc="http://creativecommons.org/ns#" xmlns:dc="http://purl.org/dc/elements/1.1/"
	 xmlns="http://www.w3.org/2000/svg" xmlns:xlink="http://www.w3.org/1999/xlink" x="0px" y="0px" viewBox="0 0 278.7 255.9"
	 style="enable-background:new 0 0 278.7 255.9;" xml:space="preserve">
<style type="text/css">
	.st0{fill:#E82127;}
</style>
<g>
	<path class="st0" d="M139.3,252.5L174.8,53c33.8,0,44.5,3.7,46,18.8c0,0,22.7-8.5,34.1-25.6c-44.6-20.7-89.5-21.6-89.5-21.6
		l-26.2,31.9l0.1,0l-26.2-31.9c0,0-44.9,0.9-89.5,21.6c11.4,17.2,34.1,25.6,34.1,25.6C59.3,56.7,70,53,103.6,53L139.3,252.5"/>
	<path class="st0" d="M139.3,15.4c36.1-0.3,77.4,5.6,119.7,24c5.7-10.2,7.1-14.7,7.1-14.7C219.9,6.4,176.6,0.2,139.3,0
		C102.1,0.2,58.8,6.4,12.5,24.7c0,0,2.1,5.5,7.1,14.7C61.9,20.9,103.2,15.1,139.3,15.4L139.3,15.4"/>
</g>
</svg>
