<?xml version="1.0" encoding="utf-8"?>
<!-- Generator: Adobe Illustrator 28.0.0, SVG Export Plug-In . SVG Version: 6.00 Build 0)  -->
<svg version="1.1"
	 id="Layer_1" xmlns:rdf="http://www.w3.org/1999/02/22-rdf-syntax-ns#" xmlns:cc="http://creativecommons.org/ns#" xmlns:dc="http://purl.org/dc/elements/1.1/"
	 xmlns="http://www.w3.org/2000/svg" xmlns:xlink="http://www.w3.org/1999/xlink" x="0px" y="0px" viewBox="0 0 278.7 36.3"
	 style="enable-background:new 0 0 278.7 36.3;" xml:space="preserve">
<g>
	<path d="M0,0.1c0.8,3.2,3.6,6.4,7.3,7.2h11.4l0.6,0.2v28.7h7.1V7.5L27,7.3h11.4c3.8-1,6.5-4,7.3-7.2V0L0,0.1L0,0.1"/>
	<path d="M70.3,36.3h27c3.8-0.7,6.6-4.1,7.3-7.3H62.9C63.7,32.2,66.5,35.6,70.3,36.3"/>
	<path d="M70.3,21.6h27c3.8-0.7,6.6-4.1,7.3-7.3H62.9C63.7,17.5,66.5,20.8,70.3,21.6"/>
	<path d="M70.3,7.3h27c3.8-0.7,6.6-4.1,7.3-7.3H62.9C63.7,3.2,66.5,6.5,70.3,7.3"/>
	<path d="M131.9,7.2h25c3.8-1.1,6.9-4,7.7-7.1h-39.6v21.4h32.4V29l-25.4,0c-4,1.1-7.4,3.8-9.1,7.3l2.1,0h39.4V14.4h-32.4L131.9,7.2"
		/>
	<path d="M216.8,36.3c3.5-1.5,5.4-4.1,6.2-7.1h-31.5l0-29.1l-7.1,0v36.2L216.8,36.3"/>
	<path d="M244.3,7.3h27c3.8-0.7,6.5-4.1,7.3-7.3H237C237.8,3.2,240.6,6.5,244.3,7.3"/>
	<path d="M238.1,14.4v21.9h7V21.7h25.6v14.6h7V14.4L238.1,14.4"/>
</g>
</svg>
